<svg width="146" height="70" viewBox="0 0 146 70" fill="none" xmlns="http://www.w3.org/2000/svg">
<path d="M28.0322 1.152V4.44H21.1682V7.992H26.3042V11.184H21.1682V18H17.0642V1.152H28.0322ZM38.3012 18L34.7972 11.64H33.8132V18H29.7092V1.152H36.5972C37.9252 1.152 39.0532 1.384 39.9812 1.848C40.9252 2.312 41.6292 2.952 42.0932 3.768C42.5572 4.568 42.7892 5.464 42.7892 6.456C42.7892 7.576 42.4692 8.576 41.8292 9.456C41.2052 10.336 40.2772 10.96 39.0452 11.328L42.9332 18H38.3012ZM33.8132 8.736H36.3572C37.1092 8.736 37.6692 8.552 38.0372 8.184C38.4212 7.816 38.6132 7.296 38.6132 6.624C38.6132 5.984 38.4212 5.48 38.0372 5.112C37.6692 4.744 37.1092 4.56 36.3572 4.56H33.8132V8.736ZM48.9895 4.44V7.848H54.4855V11.016H48.9895V14.712H55.2055V18H44.8855V1.152H55.2055V4.44H48.9895ZM61.4939 4.44V7.848H66.9899V11.016H61.4939V14.712H67.7099V18H57.3899V1.152H67.7099V4.44H61.4939ZM73.8042 9.552C73.8042 7.888 74.1642 6.408 74.8842 5.112C75.6042 3.8 76.6042 2.784 77.8842 2.064C79.1802 1.328 80.6442 0.959999 82.2762 0.959999C84.2762 0.959999 85.9882 1.488 87.4122 2.544C88.8362 3.6 89.7882 5.04 90.2682 6.864H85.7562C85.4202 6.16 84.9402 5.624 84.3162 5.256C83.7082 4.888 83.0122 4.704 82.2282 4.704C80.9642 4.704 79.9402 5.144 79.1562 6.024C78.3722 6.904 77.9802 8.08 77.9802 9.552C77.9802 11.024 78.3722 12.2 79.1562 13.08C79.9402 13.96 80.9642 14.4 82.2282 14.4C83.0122 14.4 83.7082 14.216 84.3162 13.848C84.9402 13.48 85.4202 12.944 85.7562 12.24H90.2682C89.7882 14.064 88.8362 15.504 87.4122 16.56C85.9882 17.6 84.2762 18.12 82.2762 18.12C80.6442 18.12 79.1802 17.76 77.8842 17.04C76.6042 16.304 75.6042 15.288 74.8842 13.992C74.1642 12.696 73.8042 11.216 73.8042 9.552ZM102.789 15.024H96.5014L95.4934 18H91.1974L97.2934 1.152H102.045L108.141 18H103.797L102.789 15.024ZM101.733 11.856L99.6454 5.688L97.5814 11.856H101.733ZM113.621 14.832H118.997V18H109.517V1.152H113.621V14.832ZM124.578 14.832H129.954V18H120.474V1.152H124.578V14.832Z" fill="#E2211C"/>
<rect y="26" width="146" height="44" rx="22" fill="#E2211C"/>
<rect x="6" y="31" width="34" height="34" rx="17" fill="white"/>
<path d="M32.6485 52.3664L29.255 51.9789C28.856 51.9321 28.4515 51.9762 28.072 52.1081C27.6925 52.24 27.3478 52.4562 27.0639 52.7405L24.6056 55.1987C20.8132 53.2694 17.7305 50.1868 15.8012 46.3943L18.2729 43.9227C18.8474 43.3482 19.1279 42.5465 19.0344 41.7316L18.647 38.3648C18.5715 37.7129 18.2588 37.1116 17.7685 36.6755C17.2781 36.2394 16.6445 35.9989 15.9883 36H13.677C12.1672 36 10.9114 37.2559 11.0049 38.7656C11.713 50.1753 20.838 59.287 32.2343 59.9951C33.744 60.0886 34.9999 58.8327 34.9999 57.323V55.0117C35.0132 53.6623 33.9979 52.5267 32.6485 52.3664Z" fill="#E2211C"/>
<path d="M57.632 42.732C57.7173 40.4493 58.464 38.6893 59.872 37.452C61.28 36.2147 63.1893 35.596 65.6 35.596C67.2 35.596 68.5653 35.8733 69.696 36.428C70.848 36.9827 71.712 37.74 72.288 38.7C72.8853 39.66 73.184 40.7373 73.184 41.932C73.184 43.34 72.832 44.492 72.128 45.388C71.424 46.2627 70.6027 46.86 69.664 47.18V47.308C70.88 47.7133 71.84 48.3853 72.544 49.324C73.248 50.2627 73.6 51.468 73.6 52.94C73.6 54.2627 73.2907 55.436 72.672 56.46C72.0747 57.4627 71.1893 58.252 70.016 58.828C68.864 59.404 67.488 59.692 65.888 59.692C63.328 59.692 61.28 59.0627 59.744 57.804C58.2293 56.5453 57.4293 54.6467 57.344 52.108H62.656C62.6773 53.0467 62.944 53.7933 63.456 54.348C63.968 54.8813 64.7147 55.148 65.696 55.148C66.528 55.148 67.168 54.9133 67.616 54.444C68.0853 53.9533 68.32 53.3133 68.32 52.524C68.32 51.5 67.9893 50.764 67.328 50.316C66.688 49.8467 65.6533 49.612 64.224 49.612H63.2V45.164H64.224C65.312 45.164 66.1867 44.9827 66.848 44.62C67.5307 44.236 67.872 43.564 67.872 42.604C67.872 41.836 67.6587 41.2387 67.232 40.812C66.8053 40.3853 66.2187 40.172 65.472 40.172C64.6613 40.172 64.0533 40.4173 63.648 40.908C63.264 41.3987 63.04 42.0067 62.976 42.732H57.632ZM76.175 47.5C76.175 43.8307 76.879 40.94 78.287 38.828C79.7163 36.716 82.0097 35.66 85.167 35.66C88.3243 35.66 90.607 36.716 92.015 38.828C93.4443 40.94 94.159 43.8307 94.159 47.5C94.159 51.212 93.4443 54.124 92.015 56.236C90.607 58.348 88.3243 59.404 85.167 59.404C82.0097 59.404 79.7163 58.348 78.287 56.236C76.879 54.124 76.175 51.212 76.175 47.5ZM88.783 47.5C88.783 45.3453 88.5483 43.692 88.079 42.54C87.6097 41.3667 86.639 40.78 85.167 40.78C83.695 40.78 82.7243 41.3667 82.255 42.54C81.7857 43.692 81.551 45.3453 81.551 47.5C81.551 48.9507 81.6363 50.156 81.807 51.116C81.9777 52.0547 82.319 52.8227 82.831 53.42C83.3643 53.996 84.143 54.284 85.167 54.284C86.191 54.284 86.959 53.996 87.471 53.42C88.0043 52.8227 88.3563 52.0547 88.527 51.116C88.6977 50.156 88.783 48.9507 88.783 47.5ZM96.218 55.116C96.9433 54.54 97.274 54.2733 97.21 54.316C99.3007 52.588 100.943 51.1693 102.138 50.06C103.354 48.9507 104.378 47.788 105.21 46.572C106.042 45.356 106.458 44.172 106.458 43.02C106.458 42.1453 106.255 41.4627 105.85 40.972C105.445 40.4813 104.837 40.236 104.026 40.236C103.215 40.236 102.575 40.5453 102.106 41.164C101.658 41.7613 101.434 42.6147 101.434 43.724H96.154C96.1967 41.9107 96.5807 40.396 97.306 39.18C98.0527 37.964 99.0233 37.068 100.218 36.492C101.434 35.916 102.778 35.628 104.25 35.628C106.789 35.628 108.698 36.2787 109.978 37.58C111.279 38.8813 111.93 40.5773 111.93 42.668C111.93 44.9507 111.151 47.0733 109.594 49.036C108.037 50.9773 106.053 52.876 103.642 54.732H112.282V59.18H96.218V55.116ZM114.051 47.5C114.051 43.8307 114.755 40.94 116.163 38.828C117.593 36.716 119.886 35.66 123.043 35.66C126.201 35.66 128.483 36.716 129.891 38.828C131.321 40.94 132.035 43.8307 132.035 47.5C132.035 51.212 131.321 54.124 129.891 56.236C128.483 58.348 126.201 59.404 123.043 59.404C119.886 59.404 117.593 58.348 116.163 56.236C114.755 54.124 114.051 51.212 114.051 47.5ZM126.659 47.5C126.659 45.3453 126.425 43.692 125.955 42.54C125.486 41.3667 124.515 40.78 123.043 40.78C121.571 40.78 120.601 41.3667 120.131 42.54C119.662 43.692 119.427 45.3453 119.427 47.5C119.427 48.9507 119.513 50.156 119.683 51.116C119.854 52.0547 120.195 52.8227 120.707 53.42C121.241 53.996 122.019 54.284 123.043 54.284C124.067 54.284 124.835 53.996 125.347 53.42C125.881 52.8227 126.233 52.0547 126.403 51.116C126.574 50.156 126.659 48.9507 126.659 47.5Z" fill="white"/>
</svg>
