<svg width="32" height="32" viewBox="0 0 32 32" fill="none" xmlns="http://www.w3.org/2000/svg">
<path d="M4 16.0001C4 18.9467 5.21333 21.6001 7.14667 23.5201L5.13333 25.5334C5.0412 25.6274 4.97894 25.7465 4.95442 25.8759C4.9299 26.0052 4.94421 26.1389 4.99554 26.2601C5.04687 26.3813 5.13293 26.4846 5.24287 26.5569C5.35281 26.6293 5.48171 26.6675 5.61333 26.6667H11.3333C11.7067 26.6667 12 26.3734 12 26.0001V20.2801C12 19.6801 11.28 19.3867 10.8667 19.8134L9.01333 21.6667C7.57333 20.2001 6.66667 18.2134 6.66667 16.0001C6.66667 12.8134 8.53333 10.0534 11.24 8.77339C11.6933 8.56005 12 8.14672 12 7.65339V7.40005C12 6.49339 11.0533 5.92005 10.24 6.30672C8.37956 7.15352 6.80202 8.51768 5.69558 10.2364C4.58915 11.9552 4.00055 13.956 4 16.0001ZM14.6667 22.6667H17.3333V20.0001H14.6667V22.6667ZM26.3867 5.33339H20.6667C20.2933 5.33339 20 5.62672 20 6.00005V11.7201C20 12.3201 20.72 12.6134 21.1333 12.1867L22.9867 10.3334C24.4267 11.8001 25.3333 13.7867 25.3333 16.0001C25.3333 19.1867 23.4667 21.9467 20.76 23.2267C20.3067 23.4401 20 23.8534 20 24.3467V24.5867C20 25.4934 20.9467 26.0667 21.76 25.6801C23.6204 24.8369 25.1984 23.4754 26.3051 21.7587C27.4117 20.0419 28.0002 18.0426 28 16.0001C28 13.0534 26.7867 10.4001 24.8533 8.48005L26.8667 6.46672C26.9588 6.37272 27.0211 6.25356 27.0456 6.12424C27.0701 5.99493 27.0558 5.86124 27.0045 5.74005C26.9531 5.61885 26.8671 5.51555 26.7571 5.44319C26.6472 5.37082 26.5183 5.33261 26.3867 5.33339ZM16 17.3334C16.7333 17.3334 17.3333 16.7334 17.3333 16.0001V10.6667C17.3333 9.93339 16.7333 9.33339 16 9.33339C15.2667 9.33339 14.6667 9.93339 14.6667 10.6667V16.0001C14.6667 16.7334 15.2667 17.3334 16 17.3334Z" fill="#667085"/>
</svg>
